<svg data-v-423bf9ae="" xmlns="http://www.w3.org/2000/svg" viewBox="0 0 248.2105214972245 60" class="font"><!----><!----><!----><g data-v-423bf9ae="" id="8c1b702c-0c52-48cf-995b-ebfdef64ef00" fill="white" transform="matrix(6.315789473684211,0,0,6.315789473684211,-1.3263148179179751,-17.178946833861502)"><path d="M4.31 3.42L4.20 3.42Q3.99 3.42 3.80 3.43Q3.61 3.44 3.46 3.47L3.46 3.47Q3.29 3.50 3.15 3.51L3.15 3.51L3.15 11.44Q3.29 11.47 3.46 11.49L3.46 11.49Q3.75 11.54 4.20 11.54L4.20 11.54L4.34 11.54Q5.07 11.54 5.68 11.26Q6.30 10.98 6.75 10.45Q7.20 9.93 7.45 9.17Q7.70 8.41 7.70 7.48L7.70 7.48Q7.70 6.55 7.46 5.80Q7.21 5.05 6.76 4.52Q6.31 3.99 5.69 3.70Q5.07 3.42 4.31 3.42L4.31 3.42ZM0.21 2.86L4.02 2.86Q5.46 2.86 6.54 3.17Q7.62 3.49 8.34 4.07Q9.07 4.66 9.44 5.51Q9.80 6.36 9.80 7.42L9.80 7.42Q9.80 8.46 9.45 9.32Q9.10 10.18 8.41 10.79Q7.73 11.41 6.71 11.75Q5.70 12.10 4.38 12.10L4.38 12.10L1.33 12.10L1.33 4.68Q1.33 4.05 1.16 3.66Q0.98 3.28 0.35 3.28L0.35 3.28L0.21 3.28L0.21 2.86ZM14.84 2.86L17.98 10.33Q18.23 10.95 18.59 11.31Q18.96 11.68 19.43 11.73L19.43 11.73L19.43 12.08Q19.32 12.11 19.12 12.13Q18.91 12.15 18.76 12.15L18.76 12.15Q18.42 12.15 18.04 12.09Q17.65 12.03 17.28 11.84Q16.91 11.65 16.58 11.29Q16.25 10.93 16.00 10.33L16.00 10.33L15.68 9.55L11.96 9.55L10.81 12.10L10.08 12.10L14.21 2.86L14.84 2.86ZM13.87 5.26L12.25 8.92L15.41 8.92L13.87 5.26ZM25.49 4.49L27.50 9.59L29.89 2.86L30.56 2.86L27.24 12.22L26.68 12.22L24.53 6.73L22.61 12.22L22.05 12.22L19.03 4.49Q18.70 3.70 18.38 3.39Q18.06 3.08 17.64 3.02L17.64 3.02L17.64 2.74Q17.70 2.74 17.91 2.73Q18.13 2.72 18.23 2.72L18.23 2.72Q18.59 2.72 18.98 2.77Q19.38 2.81 19.74 3.00Q20.10 3.18 20.43 3.54Q20.76 3.89 21 4.49L21 4.49L22.89 9.32L24.15 5.74L23.66 4.49Q23.34 3.70 22.97 3.39Q22.60 3.08 22.18 3.02L22.18 3.02L22.18 2.74Q22.23 2.74 22.43 2.73Q22.62 2.72 22.72 2.72L22.72 2.72Q23.09 2.72 23.48 2.77Q23.87 2.81 24.24 3.00Q24.61 3.18 24.93 3.54Q25.26 3.89 25.49 4.49L25.49 4.49ZM33.99 3.70L38.81 9.30L38.81 2.86L39.51 2.86L39.51 12.14L38.86 12.14L32.93 5.17L32.93 12.10L32.23 12.10L32.23 4.54Q32.23 4.27 32.17 4.04Q32.12 3.81 31.97 3.64Q31.82 3.47 31.58 3.37Q31.33 3.28 30.97 3.28L30.97 3.28L30.90 3.28L30.90 2.86L31.88 2.86Q32.68 2.86 33.17 3.07Q33.67 3.28 33.99 3.70L33.99 3.70Z"></path></g><!----><!----></svg>