<svg data-v-423bf9ae="" xmlns="http://www.w3.org/2000/svg" viewBox="0 0 352 107" class="iconLeft"><!----><!----><!----><g data-v-423bf9ae="" id="503ece9c-7f83-4195-a42e-294b883fbfbe" fill="black" transform="matrix(6.230529520973259,0,0,6.230529520973259,95.09127946354323,4.211321097707412)"><path d="M9.44 7.76L9.44 7.76Q9.44 9.25 8.86 10.37Q8.28 11.48 7.21 12.08Q6.15 12.67 4.75 12.67L4.75 12.67L1.15 12.67L1.15 3.04L4.33 3.04Q6.78 3.04 8.11 4.27Q9.44 5.50 9.44 7.76ZM8.13 7.76L8.13 7.76Q8.13 5.97 7.15 5.03Q6.17 4.09 4.31 4.09L4.31 4.09L2.45 4.09L2.45 11.63L4.60 11.63Q5.66 11.63 6.46 11.16Q7.27 10.70 7.70 9.82Q8.13 8.95 8.13 7.76ZM19.42 12.67L18.09 12.67L16.99 9.86L12.60 9.86L11.49 12.67L10.14 12.67L14.07 3.04L15.55 3.04L19.42 12.67ZM14.98 4.59L14.79 4.03L14.73 4.22Q14.56 4.79 14.23 5.67L14.23 5.67L13.00 8.84L16.60 8.84L15.36 5.66Q15.17 5.19 14.98 4.59L14.98 4.59ZM32.09 3.04L29.26 12.67L27.70 12.67L26.03 6.56Q25.87 5.98 25.55 4.50L25.55 4.50Q25.38 5.29 25.25 5.82Q25.13 6.36 23.39 12.67L23.39 12.67L21.83 12.67L18.99 3.04L20.35 3.04L22.08 9.16Q22.39 10.31 22.65 11.53L22.65 11.53Q22.81 10.77 23.03 9.88Q23.24 9.00 24.92 3.04L24.92 3.04L26.17 3.04L27.85 9.04Q28.23 10.51 28.45 11.53L28.45 11.53L28.51 11.29Q28.70 10.50 28.81 10.00Q28.93 9.51 30.73 3.04L30.73 3.04L32.09 3.04ZM41.11 12.67L39.54 12.67L34.38 4.47L34.42 5.13L34.45 6.28L34.45 12.67L33.29 12.67L33.29 3.04L34.81 3.04L40.02 11.30Q39.94 9.96 39.94 9.36L39.94 9.36L39.94 3.04L41.11 3.04L41.11 12.67Z"></path></g><!----><g data-v-423bf9ae="" id="ee03b6a5-cbe3-420b-80e6-adcb819bf4bf" transform="matrix(1.0868111504448785,0,0,1.0868111504448785,-13.255261890115804,-0.23894260335429607)" stroke="none" fill="black"><g clip-rule="evenodd"><path d="M12.983 10.59l17.018 88.223-5.872-59.049 29.021-1.892-.054-9.883L64.549 1 53.622 18.977z"></path><path d="M59.389 54.548l5.16-53.541-8.74 39.716-19.612 1.045 1.57 20.462-7.766 36.583 12.057-39.899z"></path><path d="M62.8 67.182l.549-10.453-15.979 3.755-.032 11.797-17.337 26.532 21.68-27.616zM65.711 62.394l14.841-4.731 1.509-12.532-15.899 2.095zM72.07 44.502l10.988-1.417 1.581-10.278-8.079-.373L64.549 1l8.43 30.967z"></path><path d="M87.413 31.294l1.256-9.506-9.544-2.694L64.549 1l14.483 22.437-.422 7z"></path></g></g><!----></svg>